# xmcd
#
# Track frame offsets: 
#        150
#        22273
#        38257
#        54410
#        73611
#        90034
#        102003
#        120839
#        137005
#        154211
#        169840
#        190250
#
# Disc length: 2810 seconds
#
# Revision: 0
# Processed by: cddbd v1.5.2PL0 Copyright (c) Steve Scherf et al.
# Submitted via: ExactAudioCopy v1.0b1
#
DISCID=8b0af80c
DTITLE=Lee Ann Womack - Icon
DYEAR=2011
DGENRE=Country
TTITLE0=I Hope You Dance
TTITLE1=The Fool
TTITLE2=You've Got To Talk To Me
TTITLE3=A Little Past Little Rock
TTITLE4=I'll Think Of A Reason Later
TTITLE5=(Now You See Me) Now You Don't
TTITLE6=Ashes By Now
TTITLE7=Why They Call It Falling
TTITLE8=Something Worth Leaving Behind
TTITLE9=Does My Ring Burn Your Finger
TTITLE10=Mendocino County Line
TTITLE11=I May Hate Myself In The Morning
EXTD=
EXTT0=
EXTT1=
EXTT2=
EXTT3=
EXTT4=
EXTT5=
EXTT6=
EXTT7=
EXTT8=
EXTT9=
EXTT10=
EXTT11=
PLAYORDER=
